<svg width="273" height="218" viewBox="0 0 273 218" fill="none" xmlns="http://www.w3.org/2000/svg">
<path d="M77.0579 1H195.088C136.812 4.3517 91.2236 12.6387 72.2914 19.6214C55.4202 25.844 46.5555 41.5005 44.4848 49.2281L1 200.892C9.38143 149.593 26.026 46.435 25.5527 44.2005C24.961 41.4074 31.469 21.0179 44.4848 12.918C54.0022 6.99518 67.2626 1.74566 77.0579 1Z" fill="#6DB79B" stroke="#6DB79B"/>
<path d="M195.942 217L77.9119 217C136.188 213.648 181.776 205.361 200.709 198.379C217.58 192.156 226.444 176.499 228.515 168.772L272 17.1076C263.619 68.4072 246.974 171.565 247.447 173.799C248.039 176.593 241.531 196.982 228.515 205.082C218.998 211.005 205.737 216.254 195.942 217Z" fill="#6DB79B" stroke="#6DB79B"/>
<path d="M65.7835 60.9591H145.949L140.625 84.1417C138.455 84.9796 123.172 83.8624 111.339 85.5382C94.3716 87.9413 90.139 94.4761 87.9697 99.2243L73.4747 157.879H44.189L65.7835 60.9591Z" fill="#6DB79B"/>
<path d="M208.071 60.9591H158.965L154.528 84.1417H186.476C187.955 84.1417 190.144 86.6554 190.618 87.7726C191.091 88.8898 191.505 92.5208 191.505 92.5208L182.039 134.417H132.638C132.046 134.231 130.981 133.132 131.454 130.227C132.046 126.596 131.75 127.993 132.638 125.2C133.348 122.965 136.878 121.662 138.554 121.29H172.277L177.602 98.3863C156.007 99.2243 116.368 95.5932 110.156 104.531C106.934 109.166 101.281 123.803 100.098 140.562C99.1515 153.969 111.733 157.693 118.143 157.879H206.592C211.62 136.652 224.636 90.2864 223.453 77.4383C222.206 63.8976 212.212 60.866 208.071 60.9591Z" fill="#6DB79B"/>
<path d="M77.0579 1H195.088C136.812 4.3517 91.2236 12.6387 72.2914 19.6214C55.4202 25.844 46.5555 41.5005 44.4848 49.2281L1 200.892C9.38143 149.593 26.026 46.435 25.5527 44.2005C24.961 41.4074 31.469 21.0179 44.4848 12.918C54.0022 6.99518 67.2626 1.74566 77.0579 1Z" fill="#6DB79B" stroke="#6DB79B"/>
<path d="M195.942 217L77.9119 217C136.188 213.648 181.776 205.361 200.709 198.379C217.58 192.156 226.444 176.499 228.515 168.772L272 17.1076C263.619 68.4072 246.974 171.565 247.447 173.799C248.039 176.593 241.531 196.982 228.515 205.082C218.998 211.005 205.737 216.254 195.942 217Z" fill="#6DB79B" stroke="#6DB79B"/>
<path d="M65.7835 60.9591H145.949L140.625 84.1417C138.455 84.9796 123.172 83.8624 111.339 85.5382C94.3716 87.9413 90.139 94.4761 87.9697 99.2243L73.4747 157.879H44.189L65.7835 60.9591Z" fill="#6DB79B"/>
<path d="M208.071 60.9591H158.965L154.528 84.1417H186.476C187.955 84.1417 190.144 86.6554 190.618 87.7726C191.091 88.8898 191.505 92.5208 191.505 92.5208L182.039 134.417H132.638C132.046 134.231 130.981 133.132 131.454 130.227C132.046 126.596 131.75 127.993 132.638 125.2C133.348 122.965 136.878 121.662 138.554 121.29H172.277L177.602 98.3863C156.007 99.2243 116.368 95.5932 110.156 104.531C106.934 109.166 101.281 123.803 100.098 140.562C99.1515 153.969 111.733 157.693 118.143 157.879H206.592C211.62 136.652 224.636 90.2864 223.453 77.4383C222.206 63.8976 212.212 60.866 208.071 60.9591Z" fill="#6DB79B"/>
</svg>
