<svg width="39" height="39" viewBox="0 0 39 39" fill="none" xmlns="http://www.w3.org/2000/svg">
<path d="M19.5 3.25C10.53 3.25 3.25 10.53 3.25 19.5C3.25 28.47 10.53 35.75 19.5 35.75C28.47 35.75 35.75 28.47 35.75 19.5C35.75 10.53 28.47 3.25 19.5 3.25ZM19.5 26.8125C15.4537 26.8125 12.1875 23.5462 12.1875 19.5C12.1875 15.4537 15.4537 12.1875 19.5 12.1875C23.5462 12.1875 26.8125 15.4537 26.8125 19.5C26.8125 23.5462 23.5462 26.8125 19.5 26.8125ZM19.5 17.875C18.6062 17.875 17.875 18.6062 17.875 19.5C17.875 20.3937 18.6062 21.125 19.5 21.125C20.3937 21.125 21.125 20.3937 21.125 19.5C21.125 18.6062 20.3937 17.875 19.5 17.875Z" fill="#6DB79B"/>
</svg>
