<svg width="36" height="36" viewBox="0 0 36 36" fill="none" xmlns="http://www.w3.org/2000/svg">
<path d="M18 21C20.49 21 22.5 18.99 22.5 16.5V7.5C22.5 5.01 20.49 3 18 3C15.51 3 13.5 5.01 13.5 7.5V16.5C13.5 18.99 15.51 21 18 21ZM16.5 7.5C16.5 6.675 17.175 6 18 6C18.825 6 19.5 6.675 19.5 7.5V16.5C19.5 17.325 18.825 18 18 18C17.175 18 16.5 17.325 16.5 16.5V7.5ZM25.5 16.5C25.5 20.64 22.14 24 18 24C13.86 24 10.5 20.64 10.5 16.5H7.5C7.5 21.795 11.415 26.145 16.5 26.88V31.5H19.5V26.88C24.585 26.145 28.5 21.795 28.5 16.5H25.5Z" fill="#6DB79B"/>
</svg>
